<svg width="182" height="42" xmlns="http://www.w3.org/2000/svg" xmlns:xlink="http://www.w3.org/1999/xlink"><defs><path id="a" d="M0 35.937h20.802V.183H0z"/><path id="c" d="M59.81 28.214V.235H.099v27.98H59.81z"/></defs><g fill="none" fill-rule="evenodd"><g transform="translate(.035 5.076)"><mask id="b" fill="#fff"><use xlink:href="#a"/></mask><path d="M16.925 35.391c-1.255.328-3.33.546-4.531.546-7.644 0-10.155-3.22-9.337-9.662L4.422 15.14H0l.71-5.786 4.531-1.2.71-5.623 9.01-2.348-.929 7.697h6.77l-.874 7.26h-6.77l-1.31 10.426c-.274 2.129.437 3.33 3.22 3.33 1.148 0 2.24-.219 2.677-.328l-.82 6.823z" fill="#2E7A39" mask="url(#b)"/></g><path d="M38.685 20.378c-.44-.11-1.535-.219-2.686-.219-2.684 0-5.205.931-5.972 1.589L27.67 41.085h-8.767l3.342-27.39h5.26l.822 1.972c1.534-1.315 4.713-2.739 8.822-2.739 1.096 0 2.028.22 2.411.384l-.876 7.066zM50.779 24.583c2.395 0 3.46-1.33 3.62-2.66.16-1.331-.586-2.609-2.982-2.609-2.874 0-4.418 1.916-4.79 5.27h4.152zM45.988 29.8c-.639 3.46 1.011 4.47 5.163 4.47 3.993 0 7.08-.798 9.103-1.756l-.798 6.653c-3.248 1.277-7.027 1.862-10.22 1.862-8.784 0-12.51-4.47-11.34-14.05 1.171-9.58 5.963-14.05 14.214-14.05 8.197 0 11.339 2.98 10.646 8.409-.638 5.429-4.524 8.462-12.723 8.462h-4.045zM73.423 22.46l8.11-8.765H92.49l-12 11.175 9.48 16.215H79.285L74.19 30.732l-1.973 1.862-1.04 8.491h-8.494L67.724 0h8.493zM100.933 22.479l8.101-8.756h10.948l-11.988 11.164 9.47 16.198H106.79l-5.09-10.343-1.971 1.86-1.04 8.483h-8.484L95.24.042h8.484z" fill="#2E7A39"/><path d="M154.746 16.795v.004c-.014 0-.027-.004-.041-.004-1.308 0-2.508 1.061-2.668 2.358l-.354 2.887-.66 5.378-.253 2.053-7.952-12.676h-4.754l-1.168 9.506-.878 7.148v.001l-.29 2.359h2.114v-.028c.087.01.171.028.263.028 1.308 0 2.508-1.062 2.666-2.36l1.269-10.317 7.952 12.677h4.754l1.168-9.508.878-7.148.29-2.358h-2.336zM133.35 16.795v.004c-.014 0-.027-.004-.041-.004-1.307 0-2.507 1.061-2.667 2.358l-.354 2.887-.661 5.378-.741 6.031v.001l-.29 2.359h2.268v-.012c.038.002.071.012.11.012 1.307 0 2.507-1.062 2.667-2.36l1.756-14.296.29-2.358h-2.336zM178.188 19.153l.29-2.359h-2.336v.005c-.015 0-.028-.005-.042-.005-1.307 0-2.507 1.062-2.666 2.36l-.355 2.886-.661 5.378-.252 2.053-7.953-12.677h-4.754l-1.168 9.507-.878 7.148v.001l-.29 2.358h2.114v-.026c.087.01.172.026.264.026 1.307 0 2.507-1.061 2.667-2.359l1.267-10.317 7.952 12.676h4.755l1.167-9.507.879-7.148z" fill="#FFF"/><g><g transform="translate(121.068 12.778)"><mask id="d" fill="#fff"><use xlink:href="#c"/></mask><path fill="#161412" mask="url(#d)" d="M.098 28.214h56.26L59.811.235H3.554z"/></g><path d="M152.58 17.88l-.001.004c-.013 0-.027-.004-.04-.004-1.29 0-2.474 1.05-2.63 2.332l-.35 2.854-.652 5.316-.248 2.029-7.843-12.53h-4.689l-1.152 9.397-.865 7.065v.001l-.286 2.332h2.085v-.027c.086.01.169.027.259.027 1.29 0 2.474-1.05 2.63-2.333l1.25-10.198 7.843 12.53h4.688l1.152-9.397.866-7.066.285-2.332h-2.303zM131.644 17.88v.004c-.015 0-.028-.004-.041-.004-1.29 0-2.473 1.05-2.63 2.332l-.35 2.854-.651 5.316-.731 5.961v.001l-.286 2.332h2.236l.001-.011c.037.001.07.01.108.01 1.289 0 2.473-1.05 2.63-2.332l1.732-14.13.286-2.333h-2.304zM175.204 20.212l.286-2.332h-2.303l-.001.004c-.014 0-.027-.004-.04-.004-1.29 0-2.474 1.05-2.63 2.332l-.35 2.854-.652 5.316-.249 2.029-7.842-12.53h-4.689l-1.151 9.397-.867 7.065v.001l-.285 2.332h2.084v-.027c.086.01.17.027.26.027 1.29 0 2.473-1.05 2.63-2.333l1.25-10.198 7.842 12.53h4.69l1.151-9.397.866-7.066z" fill="#FFF"/></g></g></svg>